<?xml version="1.0" standalone="no"?>
<!DOCTYPE svg PUBLIC "-//W3C//DTD SVG 20010904//EN"
 "http://www.w3.org/TR/2001/REC-SVG-20010904/DTD/svg10.dtd">
<svg version="1.0" xmlns="http://www.w3.org/2000/svg"
 width="740.000000pt" height="740.000000pt" viewBox="0 0 740.000000 740.000000"
 preserveAspectRatio="xMidYMid meet">
<metadata>
Created by potrace 1.11, written by Peter Selinger 2001-2013
</metadata>
<g transform="translate(0.000000,740.000000) scale(0.100000,-0.100000)"
fill="#000000" stroke="none">
<path d="M3565 7347 c-144 -48 -234 -144 -271 -286 -42 -168 44 -354 203 -434
147 -75 312 -52 433 60 209 193 158 518 -99 640 -67 31 -201 41 -266 20z"/>
<path d="M5213 6871 c-109 -28 -212 -115 -261 -219 -24 -50 -27 -69 -27 -162
0 -96 3 -110 29 -165 77 -156 250 -246 414 -216 130 24 236 104 290 219 24 50
27 69 27 162 0 93 -3 112 -27 162 -37 79 -108 152 -184 189 -52 26 -78 32
-146 35 -46 2 -97 -1 -115 -5z"/>
<path d="M2720 4639 l0 -1242 46 7 c26 3 145 6 265 6 l219 0 0 373 c0 301 3
377 14 392 12 17 29 19 201 19 l187 1 174 -250 c96 -137 220 -314 276 -392
l103 -143 328 0 328 0 -63 90 c-273 387 -517 739 -527 757 -10 19 -7 25 21 46
18 13 59 39 92 58 87 51 195 171 244 271 67 137 77 192 76 428 0 233 -10 293
-71 420 -50 104 -167 221 -273 272 -92 45 -170 71 -275 93 -96 20 -498 34
-1017 34 l-348 1 0 -1241z m965 781 c88 -6 187 -15 219 -21 114 -20 194 -79
238 -174 20 -43 23 -65 22 -165 0 -95 -4 -125 -23 -175 -33 -86 -107 -156
-192 -183 -94 -30 -135 -33 -417 -33 -233 0 -257 1 -269 17 -10 14 -13 95 -13
354 0 381 -1 376 73 383 87 8 207 7 362 -3z"/>
<path d="M740 5694 c-106 -29 -200 -109 -249 -213 -23 -49 -26 -68 -26 -161 0
-93 3 -112 26 -161 141 -301 565 -301 708 1 23 48 26 68 26 160 0 88 -4 113
-23 154 -82 180 -273 271 -462 220z"/>
<path d="M6779 4057 c-102 -43 -173 -110 -218 -206 -23 -49 -26 -69 -26 -156
0 -93 2 -105 32 -166 39 -80 111 -150 191 -187 50 -24 69 -27 162 -27 96 0
110 3 165 29 115 57 192 162 217 295 29 156 -69 339 -220 409 -46 21 -75 27
-152 29 -82 3 -103 0 -151 -20z"/>
<path d="M1980 2325 l0 -845 155 0 155 0 0 379 0 379 31 32 c48 47 87 64 150
64 113 -1 188 -64 209 -173 5 -30 10 -195 10 -367 l0 -314 155 0 155 0 0 388
c0 383 -1 388 -24 455 -47 131 -145 227 -270 262 -91 26 -232 17 -313 -19 -35
-16 -68 -35 -74 -42 -6 -8 -15 -14 -20 -14 -5 0 -9 147 -9 330 l0 330 -155 0
-155 0 0 -845z"/>
<path d="M4487 3163 c-4 -3 -7 -384 -7 -845 l0 -838 160 0 160 0 0 41 c0 22 3
39 8 37 138 -70 147 -73 232 -76 252 -10 455 131 541 378 32 92 33 255 2 355
-57 181 -203 324 -379 369 -126 33 -294 13 -373 -43 l-31 -22 0 325 0 326
-153 0 c-85 0 -157 -3 -160 -7z m659 -844 c117 -44 187 -145 188 -269 0 -124
-53 -224 -143 -274 -105 -57 -240 -43 -324 33 -58 52 -67 82 -67 217 0 142 12
186 66 240 72 72 175 92 280 53z"/>
<path d="M3192 2208 c3 -391 4 -405 25 -458 50 -120 135 -207 243 -246 25 -9
86 -18 136 -21 108 -7 177 10 253 61 l51 35 0 -50 0 -49 160 0 160 0 -2 563
-3 562 -157 3 -158 3 0 -369 0 -369 -29 -40 c-42 -58 -88 -83 -150 -83 -84 0
-152 38 -189 105 -15 26 -18 80 -22 390 l-5 360 -158 3 -158 3 3 -403z"/>
<path d="M775 2426 c-152 -48 -248 -157 -277 -316 -22 -116 23 -251 112 -334
160 -150 393 -149 543 1 206 206 124 556 -152 643 -71 23 -166 25 -226 6z"/>
<path d="M1993 1305 c-117 -32 -213 -110 -261 -213 -24 -50 -27 -69 -27 -162
0 -99 2 -110 32 -171 39 -80 111 -150 191 -187 50 -24 70 -27 157 -27 93 0
105 2 166 32 80 39 150 111 187 191 24 50 27 69 27 162 0 94 -3 111 -28 161
-56 114 -155 193 -275 218 -68 14 -104 13 -169 -4z"/>
<path d="M5175 1286 c-198 -48 -321 -232 -293 -436 16 -123 107 -242 226 -298
50 -24 69 -27 157 -27 92 0 105 3 166 32 79 39 150 111 187 191 24 50 27 69
27 162 0 96 -3 110 -29 165 -54 109 -156 189 -274 214 -65 14 -102 13 -167 -3z"/>
</g>
</svg>
